<svg xmlns="http://www.w3.org/2000/svg"  width="300" height="300"  viewBox="0 0 356.877 356.877">
  <g id="Polygon_1" data-name="Polygon 1" transform="translate(0 196.125) rotate(-45)" fill="#f64c72">
    <path d="M 231.0461273193359 226.8372802734375 L 46.31650924682617 226.8372802734375 C 43.88969421386719 226.8372802734375 41.50841522216797 226.5111236572266 39.23872756958008 225.8678741455078 C 37.0656623840332 225.2519683837891 34.98700714111328 224.3438415527344 33.06053924560547 223.1687164306641 C 29.34775733947754 220.9039154052734 26.24247550964355 217.6710662841797 24.0804443359375 213.8195953369141 C 21.91841316223145 209.9681549072266 20.77566337585449 205.6336059570313 20.7757568359375 201.2845916748047 C 20.77581977844238 199.0279693603516 21.08303833007813 196.7805328369141 21.68894577026367 194.6046600341797 C 22.3217887878418 192.3320617675781 23.28347587585449 190.1292877197266 24.54728889465332 188.0575408935547 L 116.9121017456055 36.64587783813477 C 118.1252288818359 34.65725326538086 119.5779800415039 32.85791015625 121.2300415039063 31.29784774780273 C 122.8156967163086 29.80047416687012 124.5919418334961 28.51616096496582 126.5094451904297 27.48053550720215 C 130.2098846435547 25.48200416564941 134.4188232421875 24.42563056945801 138.6813201904297 24.42563056945801 C 142.9437866210938 24.42563056945801 147.1527252197266 25.48200416564941 150.8531646728516 27.48053550720215 C 152.7706604003906 28.51616096496582 154.5469207763672 29.80047416687012 156.132568359375 31.29784774780273 C 157.7846374511719 32.85791015625 159.2373809814453 34.65725326538086 160.4505004882813 36.64587783813477 L 252.8153533935547 188.0575408935547 C 254.0791625976563 190.1292877197266 255.0408477783203 192.3320617675781 255.6736907958984 194.6046600341797 C 256.2796020507813 196.7805328369141 256.5868225097656 199.0279693603516 256.5868835449219 201.2845916748047 C 256.5869750976563 205.6336059570313 255.4442291259766 209.9681549072266 253.2821960449219 213.8195953369141 C 251.1201629638672 217.6710662841797 248.0148773193359 220.9039154052734 244.3021087646484 223.1687164306641 C 242.3756256103516 224.3438415527344 240.2969818115234 225.2519683837891 238.1239166259766 225.8678741455078 C 235.8542327880859 226.5111236572266 233.4729461669922 226.8372802734375 231.0461273193359 226.8372802734375 Z" stroke="none"/>
    <path d="M 138.6812896728516 24.92562866210938 C 134.5015106201172 24.92562866210938 130.3746948242188 25.96122741699219 126.7470397949219 27.92047119140625 C 124.8679504394531 28.93534851074219 123.1272583007813 30.19393920898438 121.5733184814453 31.66134643554688 C 119.9535675048828 33.19094848632813 118.5289154052734 34.95559692382813 117.3389434814453 36.90628051757813 L 24.97413635253906 188.3179473876953 C 23.73434448242188 190.3503112792969 22.79110717773438 192.5105895996094 22.17063903808594 194.7387542724609 C 21.57688903808594 196.8709716796875 21.27581787109375 199.0733184814453 21.2757568359375 201.2845764160156 C 21.27566528320313 205.5480651855469 22.39628601074219 209.7979736328125 24.51644897460938 213.5748138427734 C 26.6365966796875 217.3516845703125 29.68113708496094 220.5216064453125 33.32090759277344 222.7418518066406 C 35.20869445800781 223.8933715820313 37.24560546875 224.7832794189453 39.37507629394531 225.3868103027344 C 41.60038757324219 226.0175018310547 43.93582153320313 226.3372802734375 46.31651306152344 226.3372802734375 L 231.0461273193359 226.3372802734375 C 233.4268188476563 226.3372802734375 235.7622528076172 226.0175018310547 237.9875793457031 225.3868103027344 C 240.1170349121094 224.7832794189453 242.1539459228516 223.8933715820313 244.0417175292969 222.7418518066406 C 247.6815032958984 220.5216064453125 250.7260437011719 217.3516845703125 252.84619140625 213.5748138427734 C 254.9663543701172 209.7979736328125 256.0869750976563 205.5480651855469 256.0868835449219 201.2845764160156 C 256.0868225097656 199.0733184814453 255.7857513427734 196.8709716796875 255.1920013427734 194.7387542724609 C 254.571533203125 192.5105895996094 253.6282958984375 190.3503112792969 252.3885040283203 188.3179473876953 L 160.0236663818359 36.90628051757813 C 158.8336944580078 34.95556640625 157.4090423583984 33.19094848632813 155.7892913818359 31.66134643554688 C 154.2353515625 30.19393920898438 152.4946594238281 28.93534851074219 150.6155700683594 27.92047119140625 C 146.9878845214844 25.96122741699219 142.8610992431641 24.92562866210938 138.6812896728516 24.92562866210938 M 138.6813049316406 23.92564392089844 C 147.2457122802734 23.92564392089844 155.8101348876953 28.07893371582031 160.8773498535156 36.385498046875 L 253.2421875 187.7971649169922 C 263.811279296875 205.1228179931641 251.3410949707031 227.3372802734375 231.0461273193359 227.3372802734375 L 46.31651306152344 227.3372802734375 C 26.02154541015625 227.3372802734375 13.55136108398438 205.1228179931641 24.12043762207031 187.7971649169922 L 116.4852600097656 36.385498046875 C 121.5524749755859 28.07893371582031 130.1168975830078 23.92564392089844 138.6813049316406 23.92564392089844 Z" stroke="none" fill="#707070"/>
  </g>
</svg>
