<svg xmlns="http://www.w3.org/2000/svg" width="515.481" height="515.481" viewBox="0 0 515.481 515.481">
  <g id="Polygon_1" data-name="Polygon 1" transform="translate(0 298.399) rotate(-45)" fill="#f64c72">
    <path d="M 372.58154296875 306.5000305175781 L 49.41848373413086 306.5000305175781 C 46.91733551025391 306.5000305175781 44.46898651123047 306.1560363769531 42.14133453369141 305.4775695800781 C 39.91688537597656 304.8292236328125 37.79638290405273 303.8743896484375 35.83878326416016 302.6395263671875 C 32.06978607177734 300.2620849609375 28.96193504333496 296.8848876953125 26.85123443603516 292.8730163574219 C 24.74053382873535 288.8611755371094 23.71768379211426 284.3870849609375 23.89318466186523 279.9343872070313 C 23.98433494567871 277.6216125488281 24.39853477478027 275.3332214355469 25.1241340637207 273.1328125 C 25.8834342956543 270.8302612304688 26.98678398132324 268.61767578125 28.40343475341797 266.5564270019531 L 189.9849395751953 31.45917510986328 C 192.4416809082031 27.88472557067871 195.6096801757813 25.09472465515137 199.4009857177734 23.16672515869141 C 202.9568328857422 21.35852432250977 206.9676818847656 20.40277481079102 210.9999847412109 20.40277481079102 C 215.0322875976563 20.40277481079102 219.0431365966797 21.35852432250977 222.5989837646484 23.16672515869141 C 226.3902893066406 25.09472465515137 229.5582885742188 27.88472557067871 232.0150299072266 31.45917510986328 L 393.5965881347656 266.5564270019531 C 395.0132446289063 268.61767578125 396.1165771484375 270.8302612304688 396.8758239746094 273.1328125 C 397.6014709472656 275.3332824707031 398.015625 277.6216125488281 398.1067810058594 279.9343872070313 C 398.2823486328125 284.3871154785156 397.2594299316406 288.8612365722656 395.1487426757813 292.8730773925781 C 393.0380249023438 296.8849182128906 389.93017578125 300.2621154785156 386.1612243652344 302.6395263671875 C 384.2035827636719 303.8743896484375 382.0831298828125 304.8292236328125 379.8586730957031 305.4775695800781 C 377.5310363769531 306.1560363769531 375.0826721191406 306.5000305175781 372.58154296875 306.5000305175781 Z" stroke="none"/>
    <path d="M 210.9999847412109 20.90277099609375 C 207.0460357666016 20.90277099609375 203.1135406494141 21.83978271484375 199.6276397705078 23.6124267578125 C 195.9115295410156 25.50213623046875 192.8059387207031 28.23748779296875 190.3969879150391 31.74237060546875 L 28.8154296875 266.8396301269531 C 27.42562866210938 268.86181640625 26.34344482421875 271.0318298339844 25.5989990234375 273.2893676757813 C 24.887939453125 275.4455871582031 24.48214721679688 277.6878662109375 24.39279174804688 279.9540405273438 C 24.22073364257813 284.3191223144531 25.22384643554688 288.7059326171875 27.29373168945313 292.6401672363281 C 29.3636474609375 296.574462890625 32.41067504882813 299.8859252929688 36.10552978515625 302.2166137695313 C 38.02374267578125 303.4265747070313 40.10153198242188 304.3622131347656 42.28121948242188 304.9975891113281 C 44.56338500976563 305.6627197265625 46.9647216796875 306.0000305175781 49.41848754882813 306.0000305175781 L 372.5814819335938 306.0000305175781 C 375.0352478027344 306.0000305175781 377.4365844726563 305.6627197265625 379.71875 304.9975891113281 C 381.8984375 304.3622131347656 383.9762268066406 303.4265747070313 385.8944396972656 302.2166137695313 C 389.5892944335938 299.8859252929688 392.6363830566406 296.574462890625 394.7062377929688 292.6402282714844 C 396.776123046875 288.7059631347656 397.779296875 284.3191833496094 397.607177734375 279.9540405273438 C 397.5178833007813 277.6878662109375 397.1120300292969 275.4455871582031 396.4009704589844 273.2893676757813 C 395.6565246582031 271.0318298339844 394.5743408203125 268.86181640625 393.1845397949219 266.8396301269531 L 231.6029815673828 31.74237060546875 C 229.1940307617188 28.23748779296875 226.0884399414063 25.50213623046875 222.3723297119141 23.6124267578125 C 218.8863830566406 21.83978271484375 214.9538879394531 20.90277099609375 210.9999847412109 20.90277099609375 M 210.9999847412109 19.90277099609375 C 219.130859375 19.90277099609375 227.2617340087891 23.66049194335938 232.4270782470703 31.17596435546875 L 394.0086364746094 266.2732238769531 C 405.8653869628906 283.5245361328125 393.5145263671875 306.9999694824219 372.5814819335938 307.0000305175781 L 49.41848754882813 307.0000305175781 C 28.4854736328125 306.9999694824219 16.13458251953125 283.5245361328125 27.9913330078125 266.2732238769531 L 189.5728912353516 31.17596435546875 C 194.7382354736328 23.66049194335938 202.8691101074219 19.90277099609375 210.9999847412109 19.90277099609375 Z" stroke="none" fill="#707070"/>
  </g>
</svg>
